// Trumpet ensemble

<group>
ampeg_sustain=100
ampeg_release=0.325148

<region> hikey=g3 pitch_keycenter=g3 sample=3_G.wav
<region> key=g#3 sample=3_Ab.wav
<region> lokey=a3 hikey=a#3 pitch_keycenter=a#3 sample=3_Bb.wav
<region> lokey=b3 hikey=c4 pitch_keycenter=c4 sample=4_C.wav
<region> lokey=c#4 hikey=d4 pitch_keycenter=d4 sample=4_D.wav
<region> lokey=d#4 hikey=e4 pitch_keycenter=e4 sample=4_E.wav
<region> key=f4 sample=4_F.wav
<region> lokey=f#4 hikey=g4 pitch_keycenter=g4 sample=4_G.wav
<region> lokey=g#4 hikey=a4 pitch_keycenter=a4 sample=4_A.wav
<region> key=a#4 sample=4_Bb.wav
<region> lokey=b4 hikey=c5 pitch_keycenter=c5 sample=5_C.wav
<region> lokey=c#5 hikey=d5 pitch_keycenter=d5 sample=5_D.wav
<region> key=d#5 sample=5_Eb.wav
<region> lokey=e5 hikey=f5 pitch_keycenter=f5 sample=5_F.wav
<region> lokey=f#5 hikey=g5 pitch_keycenter=g5 sample=5_G.wav
<region> lokey=g#5 hikey=a5 pitch_keycenter=a5 sample=5_A.wav
<region> lokey=a#5 hikey=b5 pitch_keycenter=b5 sample=5_B.wav
<region> lokey=c6 pitch_keycenter=c#6 sample=6_Db.wav
